<?xml version="1.0" encoding="UTF-8" standalone="no"?>
<svg width="3660px" height="1024px" viewBox="0 0 3660 1024" version="1.1" xmlns="http://www.w3.org/2000/svg" xmlns:xlink="http://www.w3.org/1999/xlink" xmlns:sketch="http://www.bohemiancoding.com/sketch/ns">
    <!-- Generator: Sketch 3.3.2 (12043) - http://www.bohemiancoding.com/sketch -->
    <title>StyleCI White@1x</title>
    <desc>Created with Sketch.</desc>
    <defs></defs>
    <g id="Page-1" stroke="none" stroke-width="1" fill="none" fill-rule="evenodd" sketch:type="MSPage">
        <g id="StyleCI-White" sketch:type="MSArtboardGroup">
            <path d="M2659.97327,0 L3651.01897,0 C3655.44017,0 3659.02426,3.5808782 3659.02426,7.99889265 L3659.02426,1015.75213 C3659.02426,1020.1698 3655.44385,1023.75102 3651.01897,1023.75102 L2659.97327,1023.75102 L2659.97327,0 Z" id="CI-BG" fill="#E44041" sketch:type="MSShapeGroup"></path>
            <text id="CI" sketch:type="MSTextLayer" font-family="Kozuka Gothic Pro" font-size="1003.9092" font-weight="bold" fill="#FFFFFF">
                <tspan x="2719.91633" y="888.118755">CI</tspan>
            </text>
            <path d="M510.505067,167.31163 C476.127722,150.174038 423.168029,134.940622 354.41334,134.940622 C188.101321,134.940622 95.1895786,233.005733 95.1895786,357.72932 C95.1895786,445.321458 153.723976,517.68018 267.076302,570.997133 C341.405696,605.272318 373.924805,630.026618 373.924805,674.774775 C373.924805,718.570844 340.476578,749.037674 271.721889,749.037674 C214.116609,749.037674 153.723976,730.947993 115.630162,710.954136 L87.7566392,851.863227 C121.204866,870.904996 192.746908,889.946765 265.218067,889.946765 C438.963025,889.946765 538.378589,794.73792 538.378589,660.493448 C538.378589,569.092957 490.993601,496.734234 376.712158,444.369369 C289.37512,403.429566 259.643362,383.435708 259.643362,342.495905 C259.643362,306.316544 290.304237,274.897625 353.484222,274.897625 C411.089502,274.897625 453.828904,292.035217 479.844192,305.364455 L510.505067,167.31163 Z M1054.05793,144.461507 L563.483931,144.461507 L563.483931,291.083129 L726.07948,291.083129 L726.07948,880.42588 L889.604146,880.42588 L889.604146,291.083129 L1054.05793,291.083129 L1054.05793,144.461507 Z M1470.3317,144.461507 L1416.44289,315.837428 C1399.71877,368.202293 1385.78201,414.854627 1373.70349,463.411138 L1371.84525,463.411138 C1357.90849,412.95045 1343.97173,367.250205 1327.24761,316.789517 L1268.71322,144.461507 L1085.67708,144.461507 L1282.64998,590.990991 L1282.64998,880.42588 L1446.17464,880.42588 L1446.17464,584.326372 L1649.65136,144.461507 L1470.3317,144.461507 Z M2106.2768,738.564701 L1868.42274,738.564701 L1868.42274,144.461507 L1704.89807,144.461507 L1704.89807,880.42588 L2106.2768,880.42588 L2106.2768,738.564701 Z M2601.34572,740.468878 L2356.98783,740.468878 L2356.98783,569.092957 L2575.33043,569.092957 L2575.33043,431.992219 L2356.98783,431.992219 L2356.98783,284.418509 L2587.40895,284.418509 L2587.40895,144.461507 L2193.46317,144.461507 L2193.46317,880.42588 L2601.34572,880.42588 L2601.34572,740.468878 Z" id="STYLE" fill="#FFFFFF" sketch:type="MSShapeGroup"></path>
        </g>
    </g>
</svg>