<?xml version="1.0" encoding="UTF-8" standalone="no"?>
<svg width="1024px" height="1024px" viewBox="0 0 1024 1024" version="1.1" xmlns="http://www.w3.org/2000/svg" xmlns:xlink="http://www.w3.org/1999/xlink" xmlns:sketch="http://www.bohemiancoding.com/sketch/ns">
    <!-- Generator: Sketch 3.3.2 (12043) - http://www.bohemiancoding.com/sketch -->
    <title>CI@1x</title>
    <desc>Created with Sketch.</desc>
    <defs></defs>
    <g id="Page-1" stroke="none" stroke-width="1" fill="none" fill-rule="evenodd" sketch:type="MSPage">
        <g id="CI" sketch:type="MSArtboardGroup">
            <g sketch:type="MSLayerGroup">
                <rect id="CI-BG" fill="#E44041" sketch:type="MSShapeGroup" x="0" y="0" width="1024" height="1024"></rect>
                <path d="M613.962416,741.443247 C586.856868,751.482339 541.680954,759.513612 501.524586,759.513612 C376.035937,759.513612 295.723201,675.18524 295.723201,513.55586 C295.723201,338.87566 389.086756,262.578561 500.520677,262.578561 C549.712227,262.578561 586.856868,273.621562 612.958507,285.668472 L645.083601,142.109457 C622.997599,130.062547 568.786502,114 490.481585,114 C290.703655,114 110,245.512105 110,523.594952 C110,738.431519 226.453467,910.099992 472.411219,910.099992 C548.708318,910.099992 608.94287,896.045263 636.048418,883.998353 L613.962416,741.443247 Z M737.443247,900.0609 L914.131265,900.0609 L914.131265,124.039092 L737.443247,124.039092 L737.443247,900.0609 Z" fill="#FFFFFF" sketch:type="MSShapeGroup"></path>
            </g>
        </g>
    </g>
</svg>