<?xml version="1.0" encoding="UTF-8" standalone="no"?>
<svg width="3750px" height="3750px" viewBox="0 0 3750 3750" version="1.1" xmlns="http://www.w3.org/2000/svg" xmlns:xlink="http://www.w3.org/1999/xlink" xmlns:sketch="http://www.bohemiancoding.com/sketch/ns">
    <!-- Generator: Sketch 3.3.2 (12043) - http://www.bohemiancoding.com/sketch -->
    <title>OG@1x</title>
    <desc>Created with Sketch.</desc>
    <defs></defs>
    <g id="Page-1" stroke="none" stroke-width="1" fill="none" fill-rule="evenodd" sketch:type="MSPage">
        <g id="OG" sketch:type="MSArtboardGroup">
            <g id="StyleCI-OG" sketch:type="MSLayerGroup">
                <path d="M2726,0 L3741.8908,0 C3746.30907,0 3749.89078,3.57915545 3749.89078,8.00434737 L3749.89078,3741.99565 C3749.89078,3746.41633 3746.30942,3750 3741.8908,3750 L2726,3750 L2726,0 Z" id="CI-BG" fill="#E44041" sketch:type="MSShapeGroup"></path>
                <path d="M3339.49263,2110.04361 C3311.71314,2120.33231 3265.414,2128.56327 3224.25921,2128.56327 C3095.65049,2128.56327 3013.34091,2042.13821 3013.34091,1876.49017 C3013.34091,1697.46683 3109.0258,1619.27273 3223.23034,1619.27273 C3273.64496,1619.27273 3311.71314,1630.59029 3338.46376,1642.93673 L3371.38759,1495.80835 C3348.75246,1483.46192 3293.19349,1467 3212.94165,1467 C3008.19656,1467 2823,1601.78194 2823,1886.77887 C2823,2106.957 2942.34889,2282.89373 3194.42199,2282.89373 C3272.61609,2282.89373 3334.34828,2268.48956 3362.12776,2256.14312 L3339.49263,2110.04361 Z M3466.04361,2272.60504 L3647.12469,2272.60504 L3647.12469,1477.2887 L3466.04361,1477.2887 L3466.04361,2272.60504 Z" id="CI" fill="#FFFFFF" sketch:type="MSShapeGroup"></path>
                <path d="M0,8.00434737 C0,3.58366838 3.57874334,0 7.99484927,0 L2728.66894,0 L2728.66894,3750 L7.99484927,3750 C3.57941594,3750 0,3746.42084 0,3741.99565 L0,8.00434737 Z" id="STYLE-BG" fill="#26A9FF" sketch:type="MSShapeGroup"></path>
                <path d="M523.259386,1529.37101 C488.027304,1512.23342 433.750853,1497 363.286689,1497 C192.83959,1497 97.6177474,1595.06511 97.6177474,1719.7887 C97.6177474,1807.38084 157.607509,1879.73956 273.778157,1933.05651 C349.955631,1967.3317 383.283276,1992.086 383.283276,2036.83415 C383.283276,2080.63022 349.003413,2111.09705 278.539249,2111.09705 C219.501706,2111.09705 157.607509,2093.00737 118.566553,2073.01351 L90,2213.9226 C124.279863,2232.96437 197.600683,2252.00614 271.87372,2252.00614 C449.938567,2252.00614 551.825939,2156.7973 551.825939,2022.55283 C551.825939,1931.15233 503.262799,1858.79361 386.139932,1806.42875 C296.631399,1765.48894 266.16041,1745.49509 266.16041,1704.55528 C266.16041,1668.37592 297.583618,1636.957 362.334471,1636.957 C421.372014,1636.957 465.174061,1654.09459 491.836177,1667.42383 L523.259386,1529.37101 Z M1080.32681,1506.52088 L577.555484,1506.52088 L577.555484,1653.14251 L744.193709,1653.14251 L744.193709,2242.48526 L911.784153,2242.48526 L911.784153,1653.14251 L1080.32681,1653.14251 L1080.32681,1506.52088 Z M1506.95056,1506.52088 L1451.72189,1677.89681 C1434.58196,1730.26167 1420.29868,1776.914 1407.91984,1825.47052 L1406.0154,1825.47052 C1391.73213,1775.00983 1377.44885,1729.30958 1360.30892,1678.84889 L1300.31916,1506.52088 L1112.73213,1506.52088 L1314.60244,1953.05037 L1314.60244,2242.48526 L1482.19288,2242.48526 L1482.19288,1946.38575 L1690.72872,1506.52088 L1506.95056,1506.52088 Z M2158.70741,2100.62408 L1914.93949,2100.62408 L1914.93949,1506.52088 L1747.34905,1506.52088 L1747.34905,2242.48526 L2158.70741,2242.48526 L2158.70741,2100.62408 Z M2666.08542,2102.52826 L2415.65197,2102.52826 L2415.65197,1931.15233 L2639.4233,1931.15233 L2639.4233,1794.0516 L2415.65197,1794.0516 L2415.65197,1646.47789 L2651.80214,1646.47789 L2651.80214,1506.52088 L2248.06153,1506.52088 L2248.06153,2242.48526 L2666.08542,2242.48526 L2666.08542,2102.52826 Z" id="STYLE" fill="#FFFFFF" sketch:type="MSShapeGroup"></path>
            </g>
        </g>
    </g>
</svg>