<?xml version="1.0" encoding="UTF-8" standalone="no"?>
<svg width="3712px" height="3712px" viewBox="0 0 3712 3712" version="1.1" xmlns="http://www.w3.org/2000/svg" xmlns:xlink="http://www.w3.org/1999/xlink" xmlns:sketch="http://www.bohemiancoding.com/sketch/ns">
    <!-- Generator: Sketch 3.3.2 (12043) - http://www.bohemiancoding.com/sketch -->
    <title>OG@1x</title>
    <desc>Created with Sketch.</desc>
    <defs></defs>
    <g id="Page-1" stroke="none" stroke-width="1" fill="none" fill-rule="evenodd" sketch:type="MSPage">
        <g id="OG" sketch:type="MSArtboardGroup">
            <g id="CI" sketch:type="MSLayerGroup" transform="translate(2688.000000, 0.000000)">
                <rect id="CI-BG" fill="#E44041" sketch:type="MSShapeGroup" x="0" y="0" width="1024" height="3712"></rect>
                <path d="M600.962416,2085.44325 C573.856868,2095.48234 528.680954,2103.51361 488.524586,2103.51361 C363.035937,2103.51361 282.723201,2019.18524 282.723201,1857.55586 C282.723201,1682.87566 376.086756,1606.57856 487.520677,1606.57856 C536.712227,1606.57856 573.856868,1617.62156 599.958507,1629.66847 L632.083601,1486.10946 C609.997599,1474.06255 555.786502,1458 477.481585,1458 C277.703655,1458 97,1589.5121 97,1867.59495 C97,2082.43152 213.453467,2254.09999 459.411219,2254.09999 C535.708318,2254.09999 595.94287,2240.04526 623.048418,2227.99835 L600.962416,2085.44325 Z M724.443247,2244.0609 L901.131265,2244.0609 L901.131265,1468.03909 L724.443247,1468.03909 L724.443247,2244.0609 Z" fill="#FFFFFF" sketch:type="MSShapeGroup"></path>
            </g>
            <rect id="STYLE-BG" fill="#26A9FF" sketch:type="MSShapeGroup" x="0" y="0" width="2688" height="3712"></rect>
            <path d="M509.748427,1510.37101 C475.371083,1493.23342 422.41139,1478 353.6567,1478 C187.344682,1478 94.4329394,1576.06511 94.4329394,1700.7887 C94.4329394,1788.38084 152.967337,1860.73956 266.319663,1914.05651 C340.649056,1948.3317 373.168166,1973.086 373.168166,2017.83415 C373.168166,2061.63022 339.719939,2092.09705 270.96525,2092.09705 C213.35997,2092.09705 152.967337,2074.00737 114.873523,2054.01351 L87,2194.9226 C120.448227,2213.96437 191.990269,2233.00614 264.461428,2233.00614 C438.206386,2233.00614 537.62195,2137.7973 537.62195,2003.55283 C537.62195,1912.15233 490.236962,1839.79361 375.955519,1787.42875 C288.618481,1746.48894 258.886723,1726.49509 258.886723,1685.55528 C258.886723,1649.37592 289.547598,1617.957 352.727583,1617.957 C410.332863,1617.957 453.072265,1635.09459 479.087553,1648.42383 L509.748427,1510.37101 Z M1053.30129,1487.52088 L562.727292,1487.52088 L562.727292,1634.14251 L725.322841,1634.14251 L725.322841,2223.48526 L888.847507,2223.48526 L888.847507,1634.14251 L1053.30129,1634.14251 L1053.30129,1487.52088 Z M1469.57506,1487.52088 L1415.68625,1658.89681 C1398.96213,1711.26167 1385.02537,1757.914 1372.94685,1806.47052 L1371.08861,1806.47052 C1357.15185,1756.00983 1343.21509,1710.30958 1326.49097,1659.84889 L1267.95658,1487.52088 L1084.92044,1487.52088 L1281.89334,1934.05037 L1281.89334,2223.48526 L1445.418,2223.48526 L1445.418,1927.38575 L1648.89472,1487.52088 L1469.57506,1487.52088 Z M2105.52016,2081.62408 L1867.6661,2081.62408 L1867.6661,1487.52088 L1704.14143,1487.52088 L1704.14143,2223.48526 L2105.52016,2223.48526 L2105.52016,2081.62408 Z M2600.58908,2083.52826 L2356.23119,2083.52826 L2356.23119,1912.15233 L2574.57379,1912.15233 L2574.57379,1775.0516 L2356.23119,1775.0516 L2356.23119,1627.47789 L2586.65231,1627.47789 L2586.65231,1487.52088 L2192.70653,1487.52088 L2192.70653,2223.48526 L2600.58908,2223.48526 L2600.58908,2083.52826 Z" id="STYLE" fill="#FFFFFF" sketch:type="MSShapeGroup"></path>
        </g>
    </g>
</svg>