<?xml version="1.0" encoding="UTF-8" standalone="no"?>
<svg width="3712px" height="1024px" viewBox="0 0 3712 1024" version="1.1" xmlns="http://www.w3.org/2000/svg" xmlns:xlink="http://www.w3.org/1999/xlink" xmlns:sketch="http://www.bohemiancoding.com/sketch/ns">
    <!-- Generator: Sketch 3.3.2 (12043) - http://www.bohemiancoding.com/sketch -->
    <title>StyleCI@1x</title>
    <desc>Created with Sketch.</desc>
    <defs></defs>
    <g id="Page-1" stroke="none" stroke-width="1" fill="none" fill-rule="evenodd" sketch:type="MSPage">
        <g id="StyleCI" sketch:type="MSArtboardGroup">
            <g id="CI" sketch:type="MSLayerGroup" transform="translate(2688.000000, 0.000000)">
                <rect id="CI-BG" fill="#E44041" sketch:type="MSShapeGroup" x="0" y="0" width="1024" height="1024"></rect>
                <path d="M613.962416,741.443247 C586.856868,751.482339 541.680954,759.513612 501.524586,759.513612 C376.035937,759.513612 295.723201,675.18524 295.723201,513.55586 C295.723201,338.87566 389.086756,262.578561 500.520677,262.578561 C549.712227,262.578561 586.856868,273.621562 612.958507,285.668472 L645.083601,142.109457 C622.997599,130.062547 568.786502,114 490.481585,114 C290.703655,114 110,245.512105 110,523.594952 C110,738.431519 226.453467,910.099992 472.411219,910.099992 C548.708318,910.099992 608.94287,896.045263 636.048418,883.998353 L613.962416,741.443247 Z M737.443247,900.0609 L914.131265,900.0609 L914.131265,124.039092 L737.443247,124.039092 L737.443247,900.0609 Z" fill="#FFFFFF" sketch:type="MSShapeGroup"></path>
            </g>
            <rect id="STYLE-BG" fill="#26A9FF" sketch:type="MSShapeGroup" x="0" y="0" width="2688" height="1023.75102"></rect>
            <path d="M509.748427,167.371007 C475.371083,150.233415 422.41139,135 353.6567,135 C187.344682,135 94.4329394,233.065111 94.4329394,357.788698 C94.4329394,445.380835 152.967337,517.739558 266.319663,571.056511 C340.649056,605.331695 373.168166,630.085995 373.168166,674.834152 C373.168166,718.630221 339.719939,749.097052 270.96525,749.097052 C213.35997,749.097052 152.967337,731.007371 114.873523,711.013514 L87,851.922604 C120.448227,870.964373 191.990269,890.006143 264.461428,890.006143 C438.206386,890.006143 537.62195,794.797297 537.62195,660.552826 C537.62195,569.152334 490.236962,496.793612 375.955519,444.428747 C288.618481,403.488943 258.886723,383.495086 258.886723,342.555283 C258.886723,306.375921 289.547598,274.957002 352.727583,274.957002 C410.332863,274.957002 453.072265,292.094595 479.087553,305.423833 L509.748427,167.371007 Z M1053.30129,144.520885 L562.727292,144.520885 L562.727292,291.142506 L725.322841,291.142506 L725.322841,880.485258 L888.847507,880.485258 L888.847507,291.142506 L1053.30129,291.142506 L1053.30129,144.520885 Z M1469.57506,144.520885 L1415.68625,315.896806 C1398.96213,368.261671 1385.02537,414.914005 1372.94685,463.470516 L1371.08861,463.470516 C1357.15185,413.009828 1343.21509,367.309582 1326.49097,316.848894 L1267.95658,144.520885 L1084.92044,144.520885 L1281.89334,591.050369 L1281.89334,880.485258 L1445.418,880.485258 L1445.418,584.385749 L1648.89472,144.520885 L1469.57506,144.520885 Z M2105.52016,738.624079 L1867.6661,738.624079 L1867.6661,144.520885 L1704.14143,144.520885 L1704.14143,880.485258 L2105.52016,880.485258 L2105.52016,738.624079 Z M2600.58908,740.528256 L2356.23119,740.528256 L2356.23119,569.152334 L2574.57379,569.152334 L2574.57379,432.051597 L2356.23119,432.051597 L2356.23119,284.477887 L2586.65231,284.477887 L2586.65231,144.520885 L2192.70653,144.520885 L2192.70653,880.485258 L2600.58908,880.485258 L2600.58908,740.528256 Z" id="STYLE" fill="#FFFFFF" sketch:type="MSShapeGroup"></path>
        </g>
    </g>
</svg>